<?xml version="1.0" standalone="no"?>
<!DOCTYPE svg PUBLIC "-//W3C//DTD SVG 20010904//EN"
 "http://www.w3.org/TR/2001/REC-SVG-20010904/DTD/svg10.dtd">
<svg version="1.0" xmlns="http://www.w3.org/2000/svg"
 width="610.000000pt" height="610.000000pt" viewBox="0 0 610.000000 610.000000"
 preserveAspectRatio="xMidYMid meet">
<metadata>
Created by potrace 1.11, written by Peter Selinger 2001-2013
</metadata>
<g transform="translate(0.000000,610.000000) scale(0.100000,-0.100000)"
fill="#000000" stroke="none">
<path d="M4770 5103 c-8 -3 -29 -12 -47 -20 -17 -8 -42 -12 -55 -9 -15 4 -11
0 10 -11 33 -17 42 -33 20 -33 -7 -1 19 -14 57 -31 76 -33 100 -49 72 -49 -14
0 -16 -4 -7 -19 13 -26 13 -32 -2 -29 -7 1 -26 -1 -41 -5 -34 -9 -98 17 -148
61 -19 16 -46 32 -59 35 -18 3 -14 5 15 6 38 2 39 3 15 14 -14 6 -29 17 -33
24 -4 7 -15 13 -22 13 -20 0 -19 10 2 25 43 32 -568 32 -658 1 -25 -9 -78 -16
-121 -16 -160 0 -400 -49 -406 -83 -4 -19 17 -21 108 -8 78 12 106 -1 40 -18
-38 -10 -50 -17 -48 -30 2 -9 12 -15 23 -14 33 4 227 52 233 58 3 3 -14 5 -38
5 -92 -2 -102 -1 -94 11 5 9 -1 10 -20 5 -22 -5 -26 -3 -26 15 0 19 4 20 33
14 57 -12 149 -17 156 -8 11 15 92 31 119 23 26 -7 26 -8 -18 -26 l-45 -19 80
-6 c70 -6 85 -4 120 15 22 12 48 20 58 18 27 -6 20 -32 -13 -43 -41 -15 -38
-26 6 -21 28 4 39 0 51 -18 13 -19 22 -21 57 -17 l41 5 -35 -18 c-38 -20 -32
-27 29 -32 19 -2 36 -9 39 -15 3 -10 -15 -13 -67 -13 -59 0 -74 -3 -88 -20
-17 -20 -43 -27 -43 -12 0 14 15 30 52 55 l38 25 -93 -3 c-54 -2 -84 1 -72 5
11 5 30 9 42 9 47 2 28 16 -20 16 -44 0 -53 -3 -62 -22 -7 -16 -18 -23 -37
-23 -15 0 -30 -4 -33 -10 -3 -5 -27 -10 -53 -9 -26 0 -56 -1 -67 -3 -14 -2
-21 3 -23 20 -3 18 2 22 25 23 15 1 35 3 43 4 8 1 21 3 28 4 6 0 12 5 12 11 0
5 -10 8 -22 6 -13 -3 -48 -5 -79 -5 -43 -1 -61 -6 -79 -23 -22 -20 -22 -23 -7
-26 10 -2 16 -9 14 -15 -5 -15 -80 -18 -88 -5 -4 6 -15 6 -29 -2 -12 -6 -28
-9 -37 -6 -22 9 -36 -3 -22 -20 17 -20 10 -24 -83 -49 -185 -49 -245 -70 -279
-96 -23 -18 -52 -29 -80 -31 -24 -2 -49 -6 -54 -10 -6 -3 -26 -11 -46 -17 -22
-7 -39 -20 -42 -31 -4 -14 -14 -20 -35 -20 -17 0 -34 5 -37 10 -10 17 -23 11
-18 -8 3 -14 -8 -23 -52 -41 -30 -13 -62 -20 -71 -17 -8 3 -28 -1 -44 -9 -35
-18 -44 -19 -34 -3 4 7 3 8 -5 4 -6 -4 -9 -12 -6 -17 4 -5 -1 -12 -9 -15 -9
-3 -16 -13 -16 -20 0 -8 -11 -20 -25 -26 -15 -7 -25 -20 -25 -32 -1 -14 -15
-30 -43 -47 -52 -31 -79 -28 -46 7 30 32 16 30 -32 -3 -45 -33 -49 -43 -13
-43 35 0 27 -19 -25 -54 -41 -27 -43 -27 -57 -10 -10 13 -14 14 -11 4 2 -8 0
-23 -5 -32 -9 -19 6 -26 17 -8 9 15 25 2 25 -21 0 -22 0 -22 -36 -9 -28 11
-68 4 -59 -9 11 -18 -84 -81 -122 -81 -24 0 -49 38 -34 53 14 14 14 54 1 62
-10 6 -42 -40 -84 -123 -16 -32 -36 -56 -51 -62 -41 -15 -97 -82 -165 -196
-36 -60 -102 -160 -148 -222 -171 -236 -205 -296 -267 -481 -39 -115 -118
-286 -109 -236 4 25 2 22 -16 -15 -32 -68 -70 -103 -70 -64 0 8 -4 13 -9 10
-10 -7 -11 -76 0 -76 3 0 12 7 19 15 23 28 30 1 18 -65 -13 -78 -28 -100 -28
-44 l-1 39 -20 -38 c-16 -30 -18 -48 -13 -88 5 -36 10 -49 20 -45 8 3 14 3 14
1 0 -5 -50 -55 -55 -55 -2 0 -2 26 1 58 4 49 3 53 -7 32 -6 -14 -22 -47 -36
-74 -24 -50 -26 -68 -3 -41 18 21 44 20 32 -1 -5 -9 -7 -25 -4 -36 4 -18 5
-18 18 -1 7 10 14 13 14 6 0 -6 -6 -18 -14 -26 -8 -8 -16 -36 -18 -62 -4 -61
-28 -75 -28 -16 0 32 -3 39 -15 35 -15 -6 -19 5 -16 56 l2 25 -23 -29 c-22
-28 -52 -96 -43 -96 3 0 13 17 24 37 l20 38 1 -31 c0 -32 -37 -164 -46 -164
-3 0 -2 16 2 36 9 49 -11 37 -27 -16 -9 -30 -9 -43 0 -53 8 -11 8 -24 -2 -53
-8 -21 -17 -52 -21 -69 -7 -28 -7 -29 12 -12 40 37 53 16 27 -46 -16 -38 -21
-187 -8 -260 l6 -39 24 77 c26 80 46 101 69 70 18 -25 18 -64 0 -71 -12 -4
-12 -12 -4 -37 18 -55 28 -54 28 4 0 68 11 89 34 66 9 -8 16 -22 16 -30 0 -8
9 -25 21 -38 l21 -24 -7 25 c-4 14 -12 49 -18 77 -10 51 -19 64 -32 43 -8 -13
-35 -13 -35 0 0 6 8 10 18 10 13 0 14 2 4 9 -19 12 12 35 38 28 13 -3 20 0 20
10 0 9 6 13 15 9 12 -4 15 3 15 32 0 50 25 85 56 79 20 -4 23 -1 19 14 -14 45
50 315 115 489 51 135 103 249 96 212 -2 -12 0 -19 5 -16 5 3 8 18 7 33 -2 25
10 50 92 196 50 91 152 235 166 235 7 0 14 7 14 16 0 9 22 44 50 79 27 34 47
65 44 68 -4 3 4 20 16 37 12 17 25 29 28 26 3 -3 -2 -14 -11 -24 -24 -26 -21
-39 3 -17 12 11 20 13 20 6 0 -7 -12 -23 -27 -37 -32 -30 -25 -42 12 -18 24
15 28 16 42 2 13 -14 11 -20 -22 -57 -53 -58 -64 -51 -19 12 21 30 28 44 15
32 -12 -10 -37 -40 -56 -66 -30 -43 -31 -46 -12 -42 13 2 7 -4 -13 -14 -19
-10 -36 -26 -38 -36 -6 -32 25 -7 143 114 88 89 116 113 143 116 17 2 32 -1
32 -7 0 -5 -11 -10 -24 -10 -19 0 -40 -25 -111 -127 -86 -125 -132 -183 -146
-183 -3 0 -3 18 1 40 11 59 -6 49 -20 -12 -7 -29 -20 -62 -29 -73 -15 -19 -15
-19 4 -3 29 24 141 78 162 78 29 0 127 104 119 126 -4 10 -2 21 4 24 7 4 12
28 12 53 0 40 4 50 34 77 19 16 46 33 60 36 14 4 37 17 52 31 14 13 31 22 37
19 7 -2 21 18 33 45 17 42 18 49 5 49 -13 0 -13 3 -3 15 7 8 17 12 22 9 5 -3
15 2 22 12 19 26 37 8 35 -35 -3 -46 6 -61 34 -60 20 0 20 1 4 8 -17 6 -17 8
-3 20 16 14 40 6 31 -10 -10 -16 12 -10 36 10 21 17 22 21 10 44 -15 28 -8 47
18 47 9 0 23 6 30 13 10 10 15 8 26 -7 14 -18 16 -18 52 10 l38 29 -27 3 c-16
2 -28 7 -28 11 0 13 24 38 54 57 l28 18 -7 -34 -7 -33 33 19 c23 14 36 30 39
50 3 16 9 28 13 27 17 -7 26 -2 21 11 -3 8 0 17 6 21 8 5 6 11 -5 19 -14 10
-12 12 14 14 18 1 31 -3 31 -9 0 -9 4 -9 14 0 7 6 27 11 42 10 45 -2 105 27
97 48 -5 13 -3 15 13 8 31 -13 75 -18 73 -9 -3 21 2 34 14 34 6 0 25 7 41 15
18 9 41 13 60 9 25 -4 37 0 59 20 15 14 46 30 70 36 23 6 77 22 120 36 43 13
89 24 103 24 22 0 23 2 14 20 -13 25 -29 25 -83 1 -86 -37 -99 -41 -149 -41
-37 0 -55 -5 -64 -17 -12 -16 -15 -16 -23 -3 -9 13 -13 13 -28 -4 -17 -17 -17
-18 5 -11 25 7 31 -9 6 -19 -26 -10 -46 -7 -38 6 4 7 -6 2 -23 -10 -40 -28
-56 -28 -48 -1 l7 22 -30 -22 c-37 -26 -52 -27 -52 -3 0 19 60 46 245 113 81
30 112 36 85 19 -13 -8 -12 -10 3 -10 23 0 69 35 59 44 -3 4 0 11 8 16 12 8
10 10 -8 10 -14 0 -21 4 -16 11 3 6 18 9 32 6 30 -6 54 1 46 14 -3 5 2 6 10 3
20 -8 20 -18 1 -38 -8 -8 -15 -19 -15 -25 0 -6 -6 -11 -14 -11 -8 0 -18 -5
-21 -11 -4 -5 10 -2 32 7 70 31 114 29 82 -3 -7 -7 -2 -10 17 -9 25 1 49 26
25 26 -26 0 -8 20 24 26 45 8 53 1 26 -23 -12 -9 -21 -24 -21 -31 0 -12 3 -12
16 -1 13 10 17 10 24 -1 5 -8 12 -11 17 -7 4 5 2 12 -5 16 -18 11 -4 41 25 52
33 12 143 12 143 -1 0 -5 4 -10 9 -10 5 0 7 9 4 20 -3 11 0 20 6 20 6 0 11 -9
11 -20 0 -11 6 -20 13 -20 7 0 5 -5 -5 -10 -9 -6 -44 -8 -77 -6 -62 4 -67 2
-52 -23 8 -12 14 -13 37 -2 20 9 29 9 34 0 6 -8 13 -8 28 0 11 6 30 11 41 11
12 0 21 4 21 9 0 5 3 17 6 25 4 12 2 15 -9 10 -8 -3 -18 0 -22 6 -5 9 3 10 31
5 22 -4 53 -8 71 -9 31 -1 60 -16 32 -16 -11 0 -11 -2 1 -10 21 -13 87 -13 96
1 4 7 0 9 -14 5 -16 -5 -25 0 -38 18 -13 21 -22 25 -45 21 -36 -6 -38 11 -4
27 14 6 25 17 25 25 0 18 -13 16 -52 -6 -26 -15 -47 -17 -100 -14 -72 6 -84
16 -43 35 30 14 33 28 5 28 -11 0 -20 -4 -20 -10 0 -5 -12 -10 -26 -10 -14 0
-23 -4 -20 -9 4 -5 -3 -7 -14 -4 -22 6 -26 -7 -9 -24 9 -9 2 -14 -27 -22 -22
-6 -70 -19 -109 -30 -68 -19 -69 -19 -83 0 -7 11 -18 17 -23 14 -5 -4 -9 -2
-9 4 0 5 18 12 40 16 22 4 43 11 46 16 5 9 -43 7 -131 -5 -5 0 -11 9 -13 21
-3 17 3 26 23 33 50 19 200 41 302 45 57 2 107 6 113 10 14 9 166 25 238 25
34 0 62 4 62 10 0 6 21 10 46 10 27 0 43 -4 39 -10 -7 -12 21 -18 113 -23 73
-4 96 -12 75 -25 -15 -9 15 -47 44 -56 27 -9 39 -36 15 -36 -12 -1 -7 -9 18
-31 19 -16 36 -25 38 -19 2 5 10 10 18 10 18 0 18 9 -3 32 -9 10 -11 18 -5 18
19 0 2 28 -21 35 -22 7 -22 7 3 14 24 7 23 8 -15 20 -54 18 -65 30 -21 24 24
-3 51 2 79 15 23 11 50 22 60 26 9 3 20 19 23 36 8 36 19 37 100 11 32 -10 81
-21 107 -24 31 -3 57 -13 72 -27 13 -12 31 -20 41 -18 15 3 13 9 -16 41 -19
22 -45 43 -59 49 -107 41 -526 123 -659 129 -9 0 17 9 58 19 41 10 80 15 85
10 6 -5 30 -4 55 0 67 13 83 12 76 -5 -3 -9 0 -15 10 -15 8 0 13 4 10 9 -6 10
44 34 53 26 3 -4 -3 -13 -13 -21 -20 -14 -20 -14 0 -14 10 0 30 -3 44 -7 24
-6 24 -6 7 14 -20 24 -14 33 25 33 29 0 38 -14 16 -23 -18 -8 33 -8 60 -1 26
7 30 24 5 24 -16 1 -16 2 2 16 17 13 18 16 5 24 -11 7 -7 10 18 10 17 0 32 5
32 10 0 6 -5 10 -12 10 -21 0 -98 32 -98 41 0 16 59 10 68 -7 7 -13 122 -57
130 -49 2 2 -4 17 -13 34 l-16 31 41 0 c43 0 100 23 100 41 0 6 15 8 38 4 35
-6 36 -5 18 9 -11 9 -26 16 -33 16 -21 0 -15 20 10 29 20 8 19 9 -18 20 -55
15 -56 15 -37 -18 25 -44 8 -48 -47 -10 -51 34 -51 49 -3 49 12 0 22 6 22 13
0 21 -22 37 -52 37 -35 0 -36 13 -3 28 40 18 88 15 108 -8 18 -22 71 -28 65
-8 -3 7 -25 23 -51 36 -38 20 -51 22 -75 14 -32 -11 -62 0 -62 23 0 8 9 15 20
15 36 0 0 40 -47 52 -42 10 -50 28 -12 28 23 0 26 25 3 34 -18 7 -53 7 -74 -1z
m-742 -30 c-10 -2 -26 -2 -35 0 -10 3 -2 5 17 5 19 0 27 -2 18 -5z m530 -48
c-6 -6 -58 8 -58 16 0 4 14 3 31 -3 16 -6 29 -12 27 -13z m277 -145 l20 -9
-20 0 c-11 0 -27 4 -35 9 -13 9 -13 10 0 9 8 0 24 -4 35 -9z m-990 -50 c-31
-33 -45 -38 -45 -16 0 16 38 45 59 45 9 1 4 -10 -14 -29z m85 5 c10 -13 9 -15
-8 -15 -15 0 -20 5 -16 15 4 8 7 15 9 15 1 0 8 -7 15 -15z m415 4 c10 -14 1
-21 -19 -13 -9 3 -13 10 -10 15 7 12 21 11 29 -2z m518 -16 c-7 -2 -21 -2 -30
0 -10 3 -4 5 12 5 17 0 24 -2 18 -5z m-615 -27 c3 -16 0 -18 -24 -12 -37 10
-42 15 -24 27 22 13 44 7 48 -15z m121 -32 c2 -2 -17 -4 -43 -4 -27 0 -45 4
-41 9 5 9 73 4 84 -5z m486 2 c47 -20 44 -36 -6 -36 -25 0 -38 4 -34 10 4 6 1
17 -5 25 -16 20 -1 20 45 1z m-340 -6 c3 -5 -3 -10 -14 -10 -12 0 -21 5 -21
10 0 6 6 10 14 10 8 0 18 -4 21 -10z m-306 -5 c-3 -2 -22 -5 -43 -7 -28 -2
-40 -8 -44 -20 -5 -22 -11 -22 -34 -1 -30 27 -21 33 54 33 39 0 69 -2 67 -5z
m-371 -29 c3 -12 -1 -17 -10 -14 -7 3 -15 13 -16 22 -3 12 1 17 10 14 7 -3 15
-13 16 -22z m202 14 c0 -5 -13 -10 -30 -10 -16 0 -30 5 -30 10 0 6 14 10 30
10 17 0 30 -4 30 -10z m160 -16 c0 -2 -9 -4 -21 -4 -11 0 -18 4 -14 10 5 8 35
3 35 -6z m160 9 c-8 -3 -18 -11 -22 -17 -5 -7 -8 -4 -8 7 0 11 7 17 23 16 15
0 17 -2 7 -6z m-1210 -82 c0 -13 -27 -21 -45 -15 -18 7 -20 31 -2 37 14 5 47
-10 47 -22z m370 19 c-20 -13 -40 -13 -40 0 0 6 12 10 28 10 21 0 24 -2 12
-10z m1204 -30 c-10 -4 -21 -6 -24 -3 -8 7 24 22 34 16 5 -4 1 -10 -10 -13z
m-869 0 c-28 -12 -67 -12 -60 0 3 6 23 10 43 9 30 0 33 -2 17 -9z m-825 -25
c-7 -8 -17 -15 -23 -15 -6 0 -2 7 9 15 25 19 30 19 14 0z m690 0 c0 -7 -70
-35 -89 -35 -10 0 -5 7 14 20 27 18 75 28 75 15z m967 -21 c-3 -3 -12 -4 -19
-1 -8 3 -5 6 6 6 11 1 17 -2 13 -5z m-1511 -59 c-11 -8 -25 -15 -30 -15 -6 0
-2 7 8 15 11 8 25 15 30 15 6 0 2 -7 -8 -15z m128 -40 c-4 -8 -8 -15 -10 -15
-2 0 -4 7 -4 15 0 8 4 15 10 15 5 0 7 -7 4 -15z m-666 -50 c-13 -30 -33 -32
-48 -6 -15 29 -13 31 25 31 33 0 34 -1 23 -25z m457 -35 c-3 -5 -10 -10 -16
-10 -5 0 -9 5 -9 10 0 6 7 10 16 10 8 0 12 -4 9 -10z m1414 -26 c18 -9 41 -14
52 -11 24 7 39 -21 18 -34 -8 -5 -33 -9 -56 -9 -32 0 -43 4 -43 15 0 16 -12
18 -59 9 -17 -4 -28 -11 -25 -16 3 -5 -23 -8 -60 -7 -69 2 -82 13 -49 40 13
11 17 11 20 2 6 -18 23 -16 68 7 47 24 91 25 134 4z m-1659 -164 c0 -5 -5 -10
-11 -10 -5 0 -7 5 -4 10 3 6 8 10 11 10 2 0 4 -4 4 -10z m553 -27 c11 -10 -48
-41 -101 -54 -26 -6 -85 -22 -131 -35 -92 -27 -105 -28 -96 -14 3 5 -7 5 -25
-1 -44 -16 -44 -25 1 -21 47 5 50 -4 7 -23 -23 -9 -38 -10 -51 -3 -21 11 -51
-7 -40 -25 3 -6 1 -7 -5 -3 -7 4 -29 -5 -49 -19 -37 -25 -37 -25 -10 -25 30 0
36 -14 11 -24 -27 -10 -55 -7 -72 10 -14 15 -17 15 -27 0 -7 -9 -14 -14 -16
-11 -3 2 -5 -5 -5 -15 0 -11 6 -20 13 -20 21 0 15 -18 -9 -26 -13 -4 -26 -11
-29 -16 -4 -6 -14 -8 -23 -6 -16 3 -14 8 8 41 24 35 25 38 6 32 -33 -11 -23
11 17 35 20 12 45 19 54 17 10 -3 24 2 31 11 11 13 10 15 -4 9 -10 -4 -18 -2
-18 4 0 6 9 9 19 6 19 -5 98 29 130 56 17 14 70 40 86 43 6 0 23 6 40 13 21 9
36 9 52 2 19 -9 23 -8 23 5 0 9 8 14 18 13 29 -3 36 0 66 26 22 19 40 25 76
25 26 0 50 -3 53 -7z m-683 -67 c0 -18 -51 -39 -82 -33 -21 4 -21 5 10 16 17
7 32 17 32 22 0 5 9 9 20 9 11 0 20 -6 20 -14z m643 -27 c-7 -7 -19 -8 -30 -4
-16 7 -15 9 7 15 30 8 38 4 23 -11z m-209 -58 c3 -5 -1 -12 -10 -15 -22 -9
-24 -8 -24 9 0 16 25 21 34 6z m-124 -29 c0 -13 -12 -22 -22 -16 -10 6 -1 24
13 24 5 0 9 -4 9 -8z m-267 -24 c-13 -12 -25 -19 -29 -15 -10 10 16 37 34 37
13 0 12 -4 -5 -22z m-240 -35 c-46 -40 -103 -82 -85 -63 17 20 15 33 -4 26
-14 -6 -15 -4 -4 9 10 12 15 13 21 4 5 -8 12 -5 25 11 36 42 44 49 64 47 18
-1 15 -6 -17 -34z m134 -50 c-9 -9 -19 -14 -23 -11 -10 10 6 28 24 28 15 0 15
-1 -1 -17z m33 -23 c-11 -20 -31 -26 -43 -13 -8 7 23 32 41 33 10 0 10 -5 2
-20z m-212 -20 c-12 -16 -30 -30 -40 -30 -25 0 -14 16 26 41 40 25 41 24 14
-11z m-578 5 c0 -8 -7 -15 -15 -15 -16 0 -20 12 -8 23 11 12 23 8 23 -8z m633
-17 c-3 -18 -10 -38 -14 -44 -5 -6 -6 -14 -2 -17 3 -4 -1 -7 -11 -7 -9 0 -14
5 -11 10 6 10 -21 7 -62 -6 -29 -8 -10 16 30 39 24 14 49 33 57 41 18 23 20
20 13 -16z m367 22 c0 -5 -9 -14 -19 -20 -25 -13 -38 5 -14 19 23 13 33 14 33
1z m100 -10 c0 -5 -4 -10 -10 -10 -5 0 -10 5 -10 10 0 6 5 10 10 10 6 0 10 -4
10 -10z m-620 -10 c0 -5 -4 -10 -10 -10 -5 0 -10 5 -10 10 0 6 5 10 10 10 6 0
10 -4 10 -10z m266 -3 c21 8 17 -10 -6 -25 -12 -7 -19 -16 -16 -20 3 -4 -4 -8
-14 -9 -31 -3 -34 16 -9 43 13 14 25 21 27 15 2 -5 10 -7 18 -4z m-246 -37
c-12 -7 -11 -12 5 -30 10 -11 25 -18 32 -16 7 3 13 2 13 -2 0 -14 -23 -32 -41
-32 -9 0 -22 -14 -29 -30 -7 -17 -26 -42 -42 -55 -33 -28 -81 -35 -72 -10 4 8
2 15 -3 15 -19 0 -21 -12 -5 -40 16 -27 15 -29 -18 -68 -19 -21 -47 -47 -62
-56 -15 -9 -37 -31 -48 -49 l-22 -32 26 30 c16 19 26 24 26 15 -1 -21 -37 -66
-46 -57 -4 4 -18 -2 -30 -14 -28 -26 -49 -17 -32 14 12 24 13 24 -55 -30 -38
-31 -56 -29 -68 6 -6 17 -17 31 -26 33 -11 2 -5 13 21 40 30 31 36 34 41 18 8
-25 44 -14 51 16 7 28 40 55 59 48 15 -6 48 43 39 58 -4 6 -3 8 4 4 6 -3 15 1
20 11 9 16 11 16 27 -1 17 -16 16 -18 -5 -42 -13 -13 -20 -24 -16 -24 5 0 3
-7 -4 -15 -11 -13 -10 -14 11 -7 19 7 28 23 42 78 12 47 28 80 50 104 20 22
23 27 6 12 -14 -12 -32 -22 -40 -22 -8 1 5 18 28 38 23 20 47 50 53 66 6 17
15 26 24 23 7 -3 31 1 52 8 40 14 60 11 34 -5z m219 -56 c-15 -16 -25 -21 -28
-13 -2 7 4 18 15 26 30 22 39 15 13 -13z m-148 -67 c-16 -16 -26 0 -10 19 9
11 15 12 17 4 2 -6 -1 -17 -7 -23z m-1 -26 c0 -10 -69 -56 -75 -50 -6 6 18 35
40 47 25 14 35 15 35 3z m-40 -152 c0 -5 -4 -9 -10 -9 -5 0 -10 7 -10 16 0 8
5 12 10 9 6 -3 10 -10 10 -16z m-890 -59 c0 -11 -7 -20 -15 -20 -15 0 -21 21
-8 33 12 13 23 7 23 -13z m685 0 c-3 -5 -11 -10 -16 -10 -6 0 -7 5 -4 10 3 6
11 10 16 10 6 0 7 -4 4 -10z m-727 -83 c-11 -21 -11 -21 -18 -2 -6 16 -9 12
-15 -20 -12 -65 -76 -178 -75 -133 1 17 44 122 63 151 8 12 24 23 36 24 19 2
20 -1 9 -20z m-268 -579 c0 -19 -18 -43 -25 -36 -9 9 4 48 16 48 5 0 9 -6 9
-12z m-202 -757 c-2 -14 -7 -18 -17 -12 -8 6 -11 16 -6 31 9 27 28 12 23 -19z
m82 -21 c0 -5 -7 -10 -15 -10 -8 0 -15 5 -15 10 0 6 7 10 15 10 8 0 15 -4 15
-10z"/>
<path d="M2324 3744 c-18 -15 -18 -15 6 -10 14 3 28 6 33 6 4 0 7 5 7 10 0 15
-24 12 -46 -6z"/>
<path d="M2031 3449 l-25 -20 27 6 c19 5 27 3 27 -6 0 -10 3 -10 12 -1 10 10
9 15 -2 26 -13 13 -18 12 -39 -5z"/>
<path d="M4944 5006 c23 -18 36 -20 36 -6 0 6 -4 10 -9 10 -5 0 -18 3 -28 6
-16 5 -16 4 1 -10z"/>
<path d="M3230 4952 c-22 -10 -100 -62 -100 -66 0 -7 85 15 137 35 29 12 50
25 47 30 -6 10 -62 11 -84 1z"/>
<path d="M3380 4910 c-9 -6 -10 -10 -3 -10 6 0 15 5 18 10 8 12 4 12 -15 0z"/>
<path d="M3825 4900 c-16 -7 -17 -9 -3 -9 9 -1 20 4 23 9 7 11 7 11 -20 0z"/>
<path d="M3085 4889 c-4 -6 -5 -13 -2 -16 7 -7 27 6 27 18 0 12 -17 12 -25 -2z"/>
<path d="M3316 4893 c5 -5 11 -12 15 -16 3 -4 12 -1 19 8 11 13 9 15 -15 15
-16 0 -24 -3 -19 -7z"/>
<path d="M2994 4870 c-24 -10 -44 -46 -20 -37 8 3 31 9 51 13 20 3 34 11 32
18 -5 14 -36 18 -63 6z"/>
<path d="M3240 4860 c0 -13 11 -13 30 0 12 8 11 10 -7 10 -13 0 -23 -4 -23
-10z"/>
<path d="M2916 4841 c-4 -5 3 -7 14 -4 23 6 26 13 6 13 -8 0 -17 -4 -20 -9z"/>
<path d="M2915 4803 c-73 -15 -71 -14 -53 -24 13 -7 28 -4 55 10 38 20 37 23
-2 14z"/>
<path d="M3300 4790 c-9 -6 -10 -10 -3 -10 6 0 15 5 18 10 8 12 4 12 -15 0z"/>
<path d="M3000 4780 c0 -5 5 -10 10 -10 6 0 10 5 10 10 0 6 -4 10 -10 10 -5 0
-10 -4 -10 -10z"/>
<path d="M2767 4759 c-22 -11 -37 -23 -34 -25 5 -6 87 33 87 41 0 9 -14 4 -53
-16z"/>
<path d="M2855 4740 c-3 -5 -1 -10 4 -10 6 0 11 5 11 10 0 6 -2 10 -4 10 -3 0
-8 -4 -11 -10z"/>
<path d="M3024 4695 c-18 -13 -18 -14 4 -8 12 3 25 9 28 14 8 14 -10 11 -32
-6z"/>
<path d="M2588 4679 c-21 -11 -38 -24 -38 -29 0 -6 23 1 50 15 28 14 50 28 50
30 0 10 -26 3 -62 -16z"/>
<path d="M4908 4663 c6 -2 18 -2 25 0 6 3 1 5 -13 5 -14 0 -19 -2 -12 -5z"/>
<path d="M4908 4613 c7 -3 16 -2 19 1 4 3 -2 6 -13 5 -11 0 -14 -3 -6 -6z"/>
<path d="M2455 4580 c-10 -11 -13 -20 -8 -20 13 0 38 29 31 35 -3 3 -13 -4
-23 -15z"/>
<path d="M4818 4553 c-31 -8 -19 -24 15 -21 17 2 31 8 30 13 -2 12 -21 15 -45
8z"/>
<path d="M5120 4342 c0 -12 19 -26 26 -19 2 2 -2 10 -11 17 -9 8 -15 8 -15 2z"/>
<path d="M2050 4315 c-19 -14 -30 -25 -26 -25 13 0 66 34 66 42 0 12 -3 10
-40 -17z"/>
<path d="M3590 4230 c0 -5 4 -10 9 -10 6 0 13 5 16 10 3 6 -1 10 -9 10 -9 0
-16 -4 -16 -10z"/>
<path d="M2202 4221 c-8 -5 -12 -16 -10 -24 2 -13 7 -11 25 8 21 24 12 33 -15
16z"/>
<path d="M3630 4210 c-12 -8 -12 -10 5 -10 11 0 27 5 35 10 12 8 12 10 -5 10
-11 0 -27 -5 -35 -10z"/>
<path d="M4588 4183 c6 -2 18 -2 25 0 6 3 1 5 -13 5 -14 0 -19 -2 -12 -5z"/>
<path d="M4710 4180 c0 -11 14 -11 50 0 22 7 21 8 -12 9 -21 1 -38 -3 -38 -9z"/>
<path d="M4815 4164 c17 -8 37 -22 45 -30 13 -13 13 -16 0 -24 -23 -15 -39
-12 -57 10 -20 24 -75 27 -92 6 -10 -12 -8 -15 11 -18 13 -2 28 -15 35 -30 10
-20 25 -29 63 -38 28 -7 53 -17 57 -22 4 -7 -3 -9 -21 -4 -42 11 -52 -4 -20
-31 l29 -24 -31 4 c-22 2 -35 -2 -43 -14 -6 -10 -30 -23 -53 -30 -35 -9 -47
-8 -69 5 -31 18 -72 21 -98 6 -14 -7 -24 -4 -41 10 -14 12 -38 20 -60 20 -20
0 -59 7 -86 15 -27 8 -62 15 -78 15 -16 0 -38 8 -48 17 -36 33 -196 27 -332
-13 -40 -11 -51 -11 -58 -2 -6 10 -8 10 -8 1 0 -20 -28 -15 -50 7 -14 14 -32
20 -57 19 -31 -2 -33 -3 -10 -6 22 -4 27 -8 22 -24 -7 -20 -3 -22 48 -33 15
-4 27 -11 27 -16 0 -11 -43 -14 -53 -4 -14 14 -69 12 -74 -3 -6 -16 16 -35 30
-26 5 3 7 0 5 -8 -3 -8 -14 -12 -24 -11 -66 12 -127 8 -162 -10 -56 -30 -68
-44 -52 -62 11 -14 8 -16 -25 -16 -39 0 -40 3 -20 53 6 13 2 17 -18 17 -39 0
-203 -55 -237 -80 -38 -27 -174 -90 -195 -90 -8 0 -18 -6 -21 -14 -3 -7 -39
-30 -80 -51 -41 -21 -73 -39 -71 -41 2 -2 34 9 73 25 38 16 87 32 109 36 l40
7 -45 -33 c-25 -18 -59 -44 -77 -60 -30 -26 -30 -27 -10 -33 20 -5 20 -6 -5
-26 -30 -23 -44 -25 -51 -7 -3 9 -10 7 -23 -6 -16 -15 -17 -20 -5 -38 11 -18
10 -24 -3 -37 -15 -15 -17 -15 -33 1 -11 11 -13 17 -5 17 7 0 12 7 12 15 0 28
-41 15 -83 -25 -30 -30 -45 -39 -61 -34 -18 6 -19 5 -8 -9 11 -13 8 -18 -21
-36 -19 -12 -43 -21 -54 -21 -11 0 -28 -9 -38 -20 -10 -11 -28 -20 -39 -20
-14 0 -17 -3 -8 -8 9 -6 7 -14 -8 -30 -21 -22 -45 -29 -53 -14 -2 4 -2 1 -1
-5 2 -7 -6 -18 -18 -24 -19 -10 -20 -9 -13 7 18 44 17 54 -1 54 -33 0 -83 -43
-100 -88 -9 -23 -27 -55 -40 -71 -13 -16 -28 -40 -33 -54 -7 -18 -15 -25 -26
-21 -9 4 -15 0 -16 -7 -1 -8 -2 -21 -3 -29 0 -8 -14 -17 -31 -20 -18 -3 -31
-12 -33 -23 -3 -16 -1 -17 18 -7 20 11 21 10 10 -12 -7 -13 8 -2 34 25 25 26
46 52 46 57 0 6 4 10 8 10 4 0 14 16 21 35 7 19 17 35 23 35 5 0 8 -6 5 -13
-3 -7 4 -19 14 -25 18 -12 18 -13 -2 -33 -18 -18 -23 -19 -31 -8 -7 11 -8 10
-4 -4 3 -10 6 -21 6 -24 0 -5 32 20 108 84 45 38 51 56 9 28 -16 -10 -27 -12
-31 -6 -4 6 10 18 31 26 35 15 41 15 71 0 l34 -16 -44 -52 c-24 -29 -52 -69
-62 -89 -20 -44 -52 -54 -42 -13 5 19 3 23 -9 19 -8 -4 -15 -12 -15 -19 0 -8
-10 -22 -23 -32 -13 -10 -27 -31 -31 -47 l-7 -28 27 21 c58 45 36 7 -40 -71
-44 -46 -88 -100 -96 -121 -9 -21 -20 -37 -24 -35 -4 2 -14 -8 -21 -22 -15
-28 -19 -22 -30 45 -6 38 -8 39 -21 20 -8 -11 -18 -31 -21 -45 -4 -14 -19 -37
-35 -52 -19 -18 -28 -36 -28 -57 0 -21 -5 -31 -15 -31 -8 0 -15 -6 -15 -14 0
-8 -7 -16 -15 -20 -10 -4 -15 1 -16 17 0 12 -7 -1 -14 -30 -8 -28 -23 -66 -34
-83 -11 -18 -17 -39 -14 -47 3 -9 -7 -26 -26 -43 -17 -16 -31 -37 -31 -47 0
-10 4 -14 8 -8 9 13 32 17 32 6 0 -14 -71 -161 -81 -167 -5 -3 -9 -20 -9 -38
0 -35 -27 -125 -42 -141 -6 -6 -7 -3 -3 8 4 10 2 17 -4 17 -6 0 -11 -15 -12
-32 0 -18 -1 -57 -2 -86 -2 -57 10 -72 15 -19 2 17 8 30 13 27 6 -3 9 -16 7
-30 -3 -24 -3 -25 13 -5 15 19 15 19 13 -15 -2 -27 -7 -35 -23 -35 -16 0 -20
-7 -20 -33 l-1 -34 20 24 19 23 -7 -22 c-5 -14 -3 -23 3 -23 6 0 11 15 11 33
1 33 25 76 36 64 4 -4 2 -12 -3 -19 -6 -7 -14 -28 -18 -46 -7 -32 -6 -33 15
-22 30 16 36 6 20 -38 -14 -38 -15 -80 -4 -165 l6 -48 29 61 c21 45 33 61 46
58 22 -4 44 -59 26 -65 -18 -6 -16 -28 2 -43 13 -11 15 -8 15 18 0 17 3 37 6
46 7 17 24 22 24 7 0 -11 44 -61 53 -61 3 0 -4 22 -16 49 -18 44 -23 49 -40
40 -27 -15 -34 -3 -12 22 13 14 26 18 42 14 13 -3 23 -1 23 5 0 5 7 10 15 10
8 0 15 9 15 19 0 36 12 51 40 51 27 0 27 1 33 74 18 212 192 553 387 757 44
46 80 93 80 103 0 17 79 96 88 88 2 -2 17 8 32 23 16 15 33 25 38 21 11 -7
122 102 119 117 -1 7 18 14 48 17 41 4 49 8 47 23 -2 10 2 25 9 33 9 11 8 14
-5 14 -30 0 -16 18 32 40 39 19 52 21 77 11 22 -8 32 -8 40 1 7 8 7 9 -2 4 -6
-3 -14 -2 -18 4 -3 5 -1 11 4 11 6 1 14 2 19 3 4 1 23 18 43 38 l36 37 -29 12
c-17 7 -27 18 -26 28 5 29 102 84 148 84 16 0 31 6 34 14 3 7 17 18 31 23 20
8 25 15 20 29 -4 15 -1 19 13 18 23 -1 132 43 132 54 0 5 5 9 11 9 6 0 8 -9 4
-20 -8 -26 9 -26 36 1 11 11 27 18 35 15 9 -3 25 -1 37 5 16 9 22 9 25 0 2 -6
8 -11 13 -11 4 0 6 6 4 13 -8 19 93 67 141 67 22 0 45 5 50 10 11 11 77 15
179 12 41 -2 55 -5 45 -12 -12 -8 -12 -10 2 -15 23 -9 71 -2 75 11 2 7 -9 9
-29 7 l-33 -4 24 20 c29 26 45 25 96 -3 32 -17 40 -27 38 -47 -1 -22 2 -25 23
-21 27 5 33 -14 7 -21 -10 -3 -3 -5 15 -6 22 -1 32 -6 32 -17 0 -14 1 -14 16
0 20 20 41 22 25 2 -9 -11 -6 -15 13 -18 22 -4 24 -3 15 13 -7 13 -5 20 7 27
9 5 15 12 15 15 -1 4 2 6 7 5 4 -2 7 -13 7 -25 -1 -13 0 -23 1 -23 2 0 15 5
31 11 22 8 24 12 13 20 -13 8 -13 10 -1 18 7 5 11 13 7 19 -3 6 1 15 10 20 12
7 13 11 4 17 -6 4 -17 2 -23 -4 -6 -6 -16 -11 -22 -11 -5 0 -2 7 8 14 18 14
17 15 -2 21 -12 3 -19 11 -16 16 9 14 45 11 45 -3 0 -7 19 -21 41 -30 l42 -18
-6 34 c-5 32 -4 34 28 40 19 4 42 17 52 29 10 12 26 21 36 19 9 -2 17 1 17 7
0 6 -7 11 -15 11 -8 0 -15 6 -15 14 0 27 21 28 47 5 16 -16 24 -19 21 -9 -2
10 4 15 20 14 22 -1 22 0 -8 31 -20 21 -28 37 -24 48 3 10 1 17 -5 17 -6 0 -8
6 -6 13 3 6 -11 23 -30 36 -29 20 -40 22 -59 13 -36 -16 -51 14 -22 44 17 17
36 18 36 3 0 -6 7 -9 15 -5 9 3 19 -3 25 -15 10 -19 12 -19 34 -2 31 23 17 43
-30 43 -18 0 -36 4 -39 10 -3 5 0 8 7 5 7 -2 47 -7 88 -10 41 -3 85 -8 96 -11
14 -4 23 0 27 10 4 9 14 16 22 16 9 0 13 5 10 11 -4 6 3 21 16 35 17 18 33 24
65 24 36 0 48 6 73 33 17 17 31 42 31 54 0 12 5 25 10 28 19 12 10 35 -20 50
-16 9 -30 22 -30 29 0 15 -30 26 -73 26 -16 0 -38 10 -53 25 -14 14 -30 25
-35 25 -6 0 -17 7 -25 15 -9 8 -27 15 -42 15 l-27 0 30 -16z m-5 -100 c0 -2
-7 -4 -15 -4 -8 0 -15 4 -15 10 0 5 7 7 15 4 8 -4 15 -8 15 -10z m-815 -74
c-3 -5 -11 -10 -16 -10 -6 0 -7 5 -4 10 3 6 11 10 16 10 6 0 7 -4 4 -10z m289
-21 c18 3 26 0 26 -9 0 -5 -13 -8 -30 -7 -16 1 -30 3 -30 4 0 1 3 9 6 18 5 12
9 13 14 5 4 -6 10 -11 14 -11z m556 -34 c-12 -15 -30 -12 -30 6 0 5 10 9 21 9
18 0 19 -2 9 -15z m-300 -31 c19 -10 39 -26 45 -34 14 -21 15 -52 1 -47 -6 2
-11 12 -11 23 0 15 -7 19 -36 20 -45 1 -59 10 -59 38 0 25 11 41 19 28 3 -5
22 -17 41 -28z m465 26 c3 -6 -4 -10 -17 -10 -18 0 -20 2 -8 10 19 12 18 12
25 0z m-362 -30 c15 -7 27 -17 27 -22 0 -14 -40 -9 -46 6 -3 8 -11 13 -18 10
-7 -3 -18 1 -24 9 -15 17 22 16 61 -3z m60 -67 c10 -3 17 0 17 8 0 10 3 10 12
1 10 -10 10 -15 -2 -22 -8 -6 -21 -8 -28 -5 -8 3 -22 5 -31 5 -10 0 -18 7 -18
15 0 11 6 14 16 9 9 -3 24 -9 34 -11z m91 -4 c-8 -14 -31 -11 -37 4 -4 10 2
13 19 9 13 -2 21 -8 18 -13z m-1359 -19 c3 -5 0 -10 -7 -10 -7 -1 -22 -15 -33
-33 -17 -26 -27 -32 -55 -32 -19 0 -41 -4 -49 -9 -10 -6 -12 -5 -7 2 4 7 1 12
-6 12 -25 1 27 31 80 46 28 9 52 20 52 25 0 12 17 12 25 -1z m40 -90 c-3 -5
-15 -10 -26 -10 -11 0 -17 5 -14 10 3 6 15 10 26 10 11 0 17 -4 14 -10z m354
-14 c8 -10 24 -13 49 -9 26 3 33 2 23 -5 -8 -6 -11 -17 -8 -26 8 -21 -31 -39
-90 -41 -33 -2 -42 1 -46 16 -6 24 -1 27 50 24 35 -2 39 0 28 11 -7 8 -23 14
-34 14 -21 0 -27 11 -14 23 11 11 30 8 42 -7z m-239 -7 c0 -6 9 -8 21 -4 12 4
32 8 46 10 19 2 23 -1 18 -14 -5 -13 -4 -14 6 -3 7 6 22 12 33 12 19 0 18 -1
-4 -22 -14 -13 -19 -23 -12 -26 25 -8 12 -31 -18 -30 -22 1 -30 6 -30 20 0 24
-23 33 -49 18 -18 -9 -21 -8 -21 10 0 22 -19 27 -38 8 -6 -6 -15 -8 -19 -4
-10 10 25 36 49 36 10 0 18 -5 18 -11z m1076 -10 c9 -16 -13 -27 -42 -21 -24
4 -30 13 -17 25 10 11 51 8 59 -4z m-630 -10 c4 -6 20 -9 38 -5 31 5 31 5 9
-11 -30 -20 -29 -31 4 -35 48 -6 39 -28 -11 -28 -35 0 -49 -5 -58 -20 -7 -11
-16 -20 -20 -20 -16 0 -7 29 17 58 l24 29 -67 -2 c-53 -2 -62 0 -44 8 12 5 22
16 22 24 0 16 76 18 86 2z m-566 -29 c0 -5 -2 -10 -4 -10 -3 0 -8 5 -11 10 -3
6 -1 10 4 10 6 0 11 -4 11 -10z m90 -5 c0 -8 9 -19 21 -25 42 -23 12 -37 -176
-81 -27 -7 -58 -22 -67 -33 -13 -16 -29 -21 -67 -22 -41 0 -48 2 -40 13 7 7
22 13 36 13 31 0 65 18 58 31 -4 5 4 10 17 11 13 0 29 2 36 2 7 1 21 16 32 34
13 21 28 32 42 32 13 0 37 9 53 20 36 24 55 25 55 5z m75 -5 c-3 -5 -13 -10
-21 -10 -8 0 -14 5 -14 10 0 6 9 10 21 10 11 0 17 -4 14 -10z m245 -17 c0 -5
-9 -19 -19 -32 -22 -29 -36 -13 -15 17 15 21 34 30 34 15z m760 -13 c0 -5 -2
-10 -4 -10 -3 0 -8 5 -11 10 -3 6 -1 10 4 10 6 0 11 -4 11 -10z m-710 -15 c0
-8 -4 -15 -10 -15 -5 0 -10 7 -10 15 0 8 5 15 10 15 6 0 10 -7 10 -15z m695
-1 c16 -10 25 -26 25 -42 l0 -26 -35 34 c-19 18 -32 37 -29 42 7 11 11 10 39
-8z m-405 -10 c0 -17 -22 -14 -28 4 -2 7 3 12 12 12 9 0 16 -7 16 -16z m350 6
c0 -5 -7 -10 -15 -10 -8 0 -15 5 -15 10 0 6 7 10 15 10 8 0 15 -4 15 -10z
m-423 -25 c8 -21 -1 -28 -27 -20 -17 5 -19 10 -9 21 15 18 28 18 36 -1z m415
-33 c22 -14 25 -21 16 -30 -22 -22 -45 -14 -50 18 -5 35 -2 36 34 12z m-339
-9 c-13 -2 -33 -2 -45 0 -13 2 -3 4 22 4 25 0 35 -2 23 -4z m105 -11 c2 -7 -2
-10 -12 -6 -9 3 -16 11 -16 16 0 13 23 5 28 -10z m-458 -18 c0 -8 -4 -12 -10
-9 -5 3 -10 13 -10 21 0 8 5 12 10 9 6 -3 10 -13 10 -21z m135 17 c8 -14 -13
-24 -33 -16 -14 5 -14 7 -2 15 19 12 27 12 35 1z m88 -3 c-18 -6 -33 -17 -33
-25 0 -18 -17 -8 -30 18 -10 18 -7 19 42 18 51 -1 52 -1 21 -11z m-715 -10
c17 -17 15 -28 -7 -28 -22 0 -35 15 -26 30 8 13 18 13 33 -2z m847 -8 c-3 -5
-10 -10 -16 -10 -5 0 -9 5 -9 10 0 6 7 10 16 10 8 0 12 -4 9 -10z m-105 -10
c0 -5 -7 -7 -15 -4 -8 4 -15 8 -15 10 0 2 7 4 15 4 8 0 15 -4 15 -10z m-460
-10 c0 -5 -9 -10 -20 -10 -11 0 -20 5 -20 10 0 6 9 10 20 10 11 0 20 -4 20
-10z m-360 -14 c0 -3 -4 -8 -10 -11 -5 -3 -10 -1 -10 4 0 6 5 11 10 11 6 0 10
-2 10 -4z m-115 -16 c-3 -5 -13 -10 -21 -10 -8 0 -14 5 -14 10 0 6 9 10 21 10
11 0 17 -4 14 -10z m-395 -16 c0 -10 -28 -34 -39 -34 -6 0 -11 5 -11 10 0 6 7
10 15 10 8 0 15 5 15 10 0 6 5 10 10 10 6 0 10 -3 10 -6z m1500 -14 c0 -5 -5
-10 -11 -10 -5 0 -7 5 -4 10 3 6 8 10 11 10 2 0 4 -4 4 -10z m-1260 -42 c0 -7
-5 -20 -10 -28 -9 -13 -12 -12 -25 4 -21 28 -19 36 10 36 14 0 25 -6 25 -12z
m-115 -67 c-8 -13 -44 -20 -51 -10 -5 8 9 13 29 10 4 0 7 4 7 10 0 5 5 7 10 4
6 -4 8 -10 5 -14z m-268 -36 c-7 -5 -18 -22 -24 -37 -12 -27 -33 -38 -33 -18
0 18 -49 -24 -50 -42 0 -11 -5 -15 -15 -12 -11 5 -13 2 -9 -10 3 -9 2 -16 -4
-16 -5 0 -12 9 -15 19 -3 14 -11 18 -26 14 -33 -8 -24 9 19 40 22 16 40 33 40
38 0 5 5 9 11 9 6 0 8 -9 4 -20 -5 -15 -3 -18 9 -14 8 3 13 11 10 18 -3 8 8
18 25 26 17 7 36 19 42 27 10 11 14 11 20 1 5 -8 3 -17 -4 -23z m103 -5 c0 -6
-11 -22 -25 -35 -31 -32 -80 -34 -82 -5 -1 11 4 20 12 20 7 0 19 2 27 3 7 2
10 2 6 0 -17 -9 -7 -21 12 -16 12 3 18 8 15 11 -6 6 14 32 26 32 5 0 9 -5 9
-10z m90 -13 c0 -16 -49 -41 -59 -31 -3 4 -1 9 5 11 6 2 20 10 30 18 24 18 24
18 24 2z m-460 -57 c-32 -24 -37 -18 -15 16 13 20 20 23 28 15 9 -9 6 -17 -13
-31z m910 19 c0 -5 -4 -9 -10 -9 -5 0 -10 7 -10 16 0 8 5 12 10 9 6 -3 10 -10
10 -16z m-496 -45 c3 -8 3 -14 1 -14 -11 0 -55 24 -55 30 0 13 49 -2 54 -16z
m-179 -4 c-3 -5 -11 -10 -16 -10 -6 0 -7 5 -4 10 3 6 11 10 16 10 6 0 7 -4 4
-10z m75 -24 c0 -15 -21 -26 -48 -26 -13 0 -11 5 8 20 30 23 40 25 40 6z m439
-103 c-14 -16 -74 -14 -74 2 0 6 10 11 23 13 15 2 22 9 18 17 -9 24 8 27 27 4
13 -17 15 -25 6 -36z m-625 -84 c-3 -5 -10 -7 -15 -3 -5 3 -7 10 -3 15 3 5 10
7 15 3 5 -3 7 -10 3 -15z m392 -46 c-10 -10 -19 5 -10 18 6 11 8 11 12 0 2 -7
1 -15 -2 -18z m14 -33 c0 -5 -7 -10 -16 -10 -8 0 -12 5 -9 10 3 6 10 10 16 10
5 0 9 -4 9 -10z m-659 -139 c-29 -39 -50 -74 -47 -79 2 -4 0 -14 -6 -22 -8
-12 -9 -12 -4 3 8 24 -1 21 -15 -4 -6 -12 -7 -19 -1 -15 19 11 20 -19 2 -64
-22 -55 -46 -68 -36 -19 6 32 6 32 -9 14 -16 -19 -16 -19 -9 5 3 14 18 45 32
70 15 25 33 57 42 72 21 39 91 120 97 114 3 -3 -18 -37 -46 -75z m-3 -76 c-9
-9 -30 14 -23 25 6 9 10 8 17 -4 6 -10 8 -19 6 -21z m-24 -40 c-6 -16 -24 -21
-24 -7 0 11 11 22 21 22 5 0 6 -7 3 -15z m-134 -16 c0 -19 -58 -69 -80 -69
-32 0 -22 30 19 57 36 25 61 30 61 12z m6 -58 c-4 -5 -13 -8 -22 -4 -11 4 -12
8 -3 20 14 16 36 2 25 -16z m454 15 c0 -8 -16 -28 -35 -45 -55 -48 -57 -40 -7
27 26 34 42 41 42 18z m-520 -42 c0 -3 -5 -15 -12 -27 -10 -20 -10 -21 6 -8
30 25 27 6 -9 -53 -19 -32 -35 -67 -35 -77 0 -27 -20 -24 -21 4 0 21 -1 21 -8
2 -7 -17 -8 -17 -13 7 -3 15 -2 26 2 23 3 -2 15 19 25 48 18 52 41 87 57 87 4
0 8 -3 8 -6z m71 -81 c-16 -64 -73 -186 -81 -174 -3 6 -14 -3 -24 -19 -9 -17
-22 -30 -28 -30 -5 0 0 17 13 38 12 20 33 60 46 87 48 99 78 154 82 150 2 -2
-2 -26 -8 -52z m-71 -57 c0 -14 -5 -28 -10 -31 -13 -8 -24 20 -16 40 9 24 26
17 26 -9z m3 -181 c-3 -8 -9 -15 -14 -15 -10 0 -12 24 -3 33 11 11 24 -3 17
-18z m-43 -42 c0 -49 -10 -84 -21 -77 -5 3 -9 17 -9 32 0 25 -1 25 -15 6 -17
-23 -19 -7 -4 33 10 26 25 43 42 43 4 0 7 -17 7 -37z m-50 -119 c0 -8 7 -17
15 -20 17 -7 12 -20 -16 -34 -18 -10 -19 -7 -19 35 0 28 4 44 10 40 6 -3 10
-13 10 -21z m-130 -20 c0 -8 -4 -12 -10 -9 -5 3 -10 10 -10 16 0 5 5 9 10 9 6
0 10 -7 10 -16z m109 -146 c1 -26 -14 -46 -26 -35 -3 3 -2 30 3 59 6 44 8 49
15 28 4 -14 7 -37 8 -52z m17 45 c-10 -10 -19 5 -10 18 6 11 8 11 12 0 2 -7 1
-15 -2 -18z m-96 -22 c0 -12 -20 -25 -27 -18 -7 7 6 27 18 27 5 0 9 -4 9 -9z
m-10 -64 c0 -7 -7 -22 -15 -33 -12 -16 -14 -17 -15 -2 0 23 11 48 21 48 5 0 9
-6 9 -13z m64 -143 c8 -20 8 -24 -1 -24 -17 0 -35 19 -29 29 10 16 23 14 30
-5z"/>
<path d="M1849 4120 c-43 -22 -63 -45 -56 -62 4 -9 6 -8 6 3 1 9 19 24 41 34
38 17 72 45 54 45 -5 -1 -25 -9 -45 -20z"/>
<path d="M2104 4115 c-17 -13 -17 -14 -2 -15 9 0 20 5 23 11 11 17 0 20 -21 4z"/>
<path d="M3948 4103 c7 -3 16 -2 19 1 4 3 -2 6 -13 5 -11 0 -14 -3 -6 -6z"/>
<path d="M4040 4080 c-8 -5 -10 -10 -5 -10 6 0 17 5 25 10 8 5 11 10 5 10 -5
0 -17 -5 -25 -10z"/>
<path d="M3825 4050 c-10 -11 -16 -22 -14 -24 2 -2 12 7 22 20 22 29 17 32 -8
4z"/>
<path d="M4717 4052 c-14 -3 -11 -9 19 -33 40 -32 49 -32 39 0 -8 25 -33 39
-58 33z"/>
<path d="M3860 4016 c0 -2 7 -6 15 -10 8 -3 15 -1 15 4 0 6 -7 10 -15 10 -8 0
-15 -2 -15 -4z"/>
<path d="M3710 3980 c0 -5 5 -10 10 -10 6 0 10 5 10 10 0 6 -4 10 -10 10 -5 0
-10 -4 -10 -10z"/>
<path d="M4647 3970 c3 -13 14 -20 29 -20 32 0 30 6 -5 24 -27 15 -29 14 -24
-4z"/>
<path d="M3222 3908 c3 -7 13 -15 22 -16 12 -3 17 1 14 10 -3 7 -13 15 -22 16
-12 3 -17 -1 -14 -10z"/>
<path d="M1533 3827 c-25 -27 -57 -77 -50 -77 9 0 80 90 75 95 -2 3 -14 -5
-25 -18z"/>
<path d="M2800 3745 c0 -8 6 -15 14 -15 8 0 16 7 20 15 4 10 -1 15 -14 15 -11
0 -20 -7 -20 -15z"/>
<path d="M4755 3750 c-3 -5 16 -19 42 -31 60 -28 92 -34 153 -30 19 2 29 5 23
8 -7 2 -13 13 -13 24 0 16 -7 19 -41 19 -22 0 -48 -4 -58 -10 -14 -7 -24 -4
-39 10 -22 21 -57 26 -67 10z"/>
<path d="M4991 3751 c-19 -12 -5 -31 24 -31 13 0 27 -5 31 -11 10 -16 23 9 17
32 -6 20 -47 26 -72 10z"/>
<path d="M5000 3700 c0 -5 5 -10 11 -10 5 0 7 5 4 10 -3 6 -8 10 -11 10 -2 0
-4 -4 -4 -10z"/>
<path d="M1373 3618 c-26 -29 -46 -68 -35 -68 14 0 42 35 42 51 0 8 5 20 12
27 7 7 10 12 7 12 -3 0 -15 -10 -26 -22z"/>
<path d="M4911 3594 c0 -11 3 -14 6 -6 3 7 2 16 -1 19 -3 4 -6 -2 -5 -13z"/>
<path d="M2492 3550 c-28 -26 -27 -30 1 -30 16 0 22 6 23 25 2 30 3 30 -24 5z"/>
<path d="M2536 3531 c-3 -5 1 -14 8 -20 12 -10 13 -8 9 8 -6 23 -9 25 -17 12z"/>
<path d="M4855 3516 c28 -14 68 -33 90 -43 22 -9 43 -19 48 -21 4 -2 7 1 7 6
0 12 -124 71 -165 79 -24 4 -20 0 20 -21z"/>
<path d="M2695 3503 l-29 -16 23 -9 c19 -6 29 -3 49 17 22 22 23 25 6 25 -11
-1 -32 -8 -49 -17z"/>
<path d="M4910 3460 c0 -5 5 -10 10 -10 6 0 10 5 10 10 0 6 -4 10 -10 10 -5 0
-10 -4 -10 -10z"/>
<path d="M4595 3440 c-3 -5 -1 -10 4 -10 6 0 11 5 11 10 0 6 -2 10 -4 10 -3 0
-8 -4 -11 -10z"/>
<path d="M5022 3428 c2 -6 22 -17 43 -25 21 -7 46 -20 55 -28 28 -25 35 -17 9
11 -40 43 -117 74 -107 42z"/>
<path d="M4183 3403 c5 -4 14 -8 20 -8 7 -1 11 -6 10 -13 -2 -7 2 -12 8 -12
22 0 3 35 -21 38 -14 2 -21 0 -17 -5z"/>
<path d="M2580 3380 c-12 -8 -11 -10 8 -10 12 0 22 5 22 10 0 13 -11 13 -30 0z"/>
<path d="M3818 3373 c6 -2 18 -2 25 0 6 3 1 5 -13 5 -14 0 -19 -2 -12 -5z"/>
<path d="M3950 3369 c0 -5 5 -7 10 -4 6 3 10 8 10 11 0 2 -4 4 -10 4 -5 0 -10
-5 -10 -11z"/>
<path d="M4671 3336 c2 -2 33 -6 69 -10 44 -4 60 -3 50 4 -14 9 -129 15 -119
6z"/>
<path d="M3690 3310 c0 -5 5 -10 11 -10 5 0 7 5 4 10 -3 6 -8 10 -11 10 -2 0
-4 -4 -4 -10z"/>
<path d="M4515 3310 c-3 -5 3 -10 14 -10 11 0 23 5 26 10 3 6 -3 10 -14 10
-11 0 -23 -4 -26 -10z"/>
<path d="M3582 3298 c-17 -17 -15 -48 3 -48 8 0 12 6 9 14 -3 7 2 16 10 19 9
4 16 11 16 17 0 14 -23 13 -38 -2z"/>
<path d="M2096 3285 c-14 -10 -17 -18 -10 -25 7 -7 14 -3 22 15 13 29 13 29
-12 10z"/>
<path d="M2460 3278 c-12 -22 -12 -22 6 -6 10 10 15 20 12 24 -4 3 -12 -5 -18
-18z"/>
<path d="M3458 3268 c9 -9 15 -9 24 0 9 9 7 12 -12 12 -19 0 -21 -3 -12 -12z"/>
<path d="M3505 3260 c-3 -5 -1 -10 4 -10 6 0 11 5 11 10 0 6 -2 10 -4 10 -3 0
-8 -4 -11 -10z"/>
<path d="M3622 3250 c-17 -10 -40 -15 -59 -13 -17 3 -43 -2 -58 -10 l-28 -14
29 -7 c21 -6 31 -3 41 10 7 9 19 14 28 10 9 -3 29 1 45 9 16 8 43 15 60 15 16
0 30 4 30 8 0 15 -59 9 -88 -8z"/>
<path d="M5270 3241 c0 -5 5 -13 10 -16 6 -3 10 -2 10 4 0 5 -4 13 -10 16 -5
3 -10 2 -10 -4z"/>
<path d="M3320 3193 c1 -11 26 -43 34 -43 3 0 6 11 6 25 0 18 -5 25 -20 25
-11 0 -20 -3 -20 -7z"/>
<path d="M1750 3148 c-17 -31 -19 -39 -7 -29 9 7 17 18 17 24 0 6 7 19 17 29
9 10 12 18 6 18 -5 0 -20 -19 -33 -42z"/>
<path d="M3234 3136 c-16 -18 -36 -35 -44 -38 -12 -4 -12 -8 -3 -18 9 -10 17
-8 38 9 17 13 36 19 49 15 14 -3 31 2 47 15 17 15 20 20 9 21 -9 0 -21 -5 -28
-12 -6 -6 -15 -8 -19 -4 -5 4 0 13 10 20 23 17 22 21 -6 24 -16 1 -34 -10 -53
-32z"/>
<path d="M1237 3079 c-4 -16 -3 -18 9 -8 16 13 19 29 5 29 -5 0 -11 -9 -14
-21z"/>
<path d="M2420 3075 c-11 -13 -10 -14 4 -9 9 3 16 10 16 15 0 13 -6 11 -20 -6z"/>
<path d="M1720 3020 c-19 -16 -41 -28 -47 -25 -7 2 -13 -2 -13 -9 0 -8 -3 -21
-6 -30 -10 -25 52 9 74 42 42 61 41 63 -8 22z"/>
<path d="M1092 3017 c-6 -6 -14 -26 -18 -42 -6 -29 -6 -29 20 8 14 21 26 40
26 42 0 10 -18 5 -28 -8z"/>
<path d="M1808 2966 c-24 -29 -25 -33 -8 -29 11 3 26 18 34 34 19 39 7 37 -26
-5z"/>
<path d="M1890 2967 c-8 -7 -20 -21 -26 -32 -6 -11 -20 -20 -30 -20 -10 0 -25
-8 -32 -18 -7 -9 -28 -24 -45 -33 -18 -9 -45 -30 -60 -47 l-28 -32 5 45 c3 28
2 36 -2 20 -5 -15 -17 -26 -30 -28 -19 -3 -22 1 -22 33 l0 37 -45 -53 c-25
-29 -45 -60 -45 -69 0 -8 -7 -26 -16 -38 -19 -28 -36 -82 -24 -82 4 0 6 -9 3
-20 -3 -11 -9 -20 -14 -20 -5 0 -9 -7 -9 -16 0 -8 -4 -13 -10 -9 -5 3 -6 13
-3 22 4 11 3 14 -6 9 -7 -5 -9 -16 -5 -29 10 -28 6 -74 -7 -98 -7 -15 -7 -19
3 -17 22 5 14 -26 -9 -37 -24 -10 -50 -65 -31 -65 7 0 8 -23 5 -67 l-6 -68 24
40 c55 93 75 107 72 51 -1 -19 -4 -32 -6 -30 -2 2 -11 -5 -19 -17 -8 -11 -20
-18 -28 -15 -20 8 -18 -33 3 -56 15 -17 15 -20 1 -31 -9 -6 -21 -29 -27 -49
-7 -20 -21 -48 -31 -61 -11 -13 -18 -34 -15 -45 4 -24 -25 -56 -32 -34 -3 6
-9 10 -14 6 -14 -8 -10 95 7 161 9 33 18 71 20 85 5 23 4 24 -9 7 -8 -10 -22
-48 -31 -85 -9 -37 -19 -75 -23 -86 -3 -12 -1 -16 7 -11 8 5 10 -19 4 -98 -7
-118 1 -213 18 -184 8 16 11 16 25 2 11 -12 12 -19 4 -29 -6 -7 -8 -21 -5 -31
10 -25 36 62 29 95 -3 14 2 44 11 65 17 39 18 39 24 15 6 -22 9 -18 24 33 19
63 16 85 -6 41 -7 -15 -19 -29 -25 -32 -19 -6 14 68 45 101 21 22 25 36 23 69
-1 23 3 54 10 69 13 32 59 68 59 47 1 -7 11 5 23 27 l22 40 6 -40 c6 -36 6
-37 8 -9 0 17 4 47 7 65 6 28 4 32 -7 22 -22 -21 -36 -15 -43 18 -8 40 3 58
20 35 17 -24 30 -14 55 40 12 24 25 41 30 39 13 -8 53 78 84 180 31 104 88
221 139 288 35 45 37 60 6 34z m-110 -127 c0 -12 -40 -34 -47 -26 -9 8 17 36
33 36 8 0 14 -4 14 -10z m-183 -157 c-3 -10 -5 -2 -5 17 0 19 2 27 5 18 2 -10
2 -26 0 -35z m75 -75 c-15 -15 -26 -4 -18 18 5 13 9 15 18 6 9 -9 9 -15 0 -24z
m-144 -63 c-33 -51 -49 -46 -28 9 6 16 17 26 30 26 20 0 20 -1 -2 -35z m82
-75 c0 -11 -4 -20 -10 -20 -5 0 -10 9 -10 20 0 11 5 20 10 20 6 0 10 -9 10
-20z m-140 -53 c0 -13 -7 -32 -15 -43 -16 -21 -18 -12 -9 35 8 36 24 42 24 8z
m136 -12 c-3 -9 -11 -13 -16 -10 -8 5 -7 11 1 21 14 18 24 11 15 -11z m-236
-489 c0 -18 -27 -39 -40 -31 -16 10 -12 33 8 38 29 8 32 7 32 -7z"/>
<path d="M2995 2920 c-10 -11 -14 -20 -9 -20 12 1 44 25 44 34 0 12 -17 6 -35
-14z"/>
<path d="M1896 2921 c-3 -5 1 -11 9 -15 8 -3 15 -1 15 4 0 13 -18 22 -24 11z"/>
<path d="M2241 2891 c-18 -29 -29 -37 -45 -34 -17 3 -18 2 -4 -4 12 -6 15 -12
8 -23 -5 -8 -10 -19 -10 -25 0 -5 18 19 41 54 22 35 38 65 37 67 -2 2 -14 -14
-27 -35z"/>
<path d="M1160 2911 c0 -6 4 -13 10 -16 6 -3 7 1 4 9 -7 18 -14 21 -14 7z"/>
<path d="M1000 2881 c-6 -12 -7 -21 -1 -21 10 0 24 30 17 37 -2 3 -9 -5 -16
-16z"/>
<path d="M2132 2878 c-14 -14 -16 -28 -3 -28 9 0 24 30 18 36 -2 2 -9 -2 -15
-8z"/>
<path d="M1827 2805 c-33 -67 -36 -109 -3 -45 21 41 41 100 33 100 -1 0 -15
-25 -30 -55z"/>
<path d="M1017 2836 c-4 -10 -7 -25 -6 -34 0 -11 4 -9 10 7 5 13 8 29 6 35 -2
5 -6 2 -10 -8z"/>
<path d="M2074 2832 c-16 -10 -36 -52 -26 -52 11 0 27 19 35 43 7 19 7 20 -9
9z"/>
<path d="M2119 2758 c-31 -36 -34 -44 -23 -56 8 -7 14 -19 14 -25 0 -7 8 2 18
18 11 17 26 36 35 44 10 7 17 20 17 28 0 8 -11 2 -26 -17 -34 -40 -41 -33 -13
14 11 20 19 36 17 36 -1 0 -19 -19 -39 -42z"/>
<path d="M915 2640 c3 -5 8 -10 11 -10 2 0 4 5 4 10 0 6 -5 10 -11 10 -5 0 -7
-4 -4 -10z"/>
<path d="M960 2616 c-5 -14 -14 -37 -20 -51 -5 -14 -7 -25 -4 -25 8 0 45 92
40 98 -3 3 -10 -7 -16 -22z"/>
<path d="M1066 2601 c-22 -24 -45 -87 -45 -121 0 -16 8 -3 23 37 13 35 29 70
36 78 19 23 6 28 -14 6z"/>
<path d="M897 2556 c-4 -10 -7 -30 -6 -44 1 -25 1 -25 10 6 11 37 7 67 -4 38z"/>
<path d="M877 2463 c-4 -3 -7 -11 -7 -17 0 -6 5 -5 12 2 6 6 9 14 7 17 -3 3
-9 2 -12 -2z"/>
<path d="M900 2425 c-8 -9 -8 -15 -2 -15 12 0 26 19 19 26 -2 2 -10 -2 -17
-11z"/>
<path d="M1030 2360 c0 -5 5 -10 10 -10 6 0 10 5 10 10 0 6 -4 10 -10 10 -5 0
-10 -4 -10 -10z"/>
<path d="M1647 2363 c-4 -3 -7 -11 -7 -17 0 -6 5 -5 12 2 6 6 9 14 7 17 -3 3
-9 2 -12 -2z"/>
<path d="M886 2334 c-4 -10 -1 -14 6 -12 15 5 23 28 10 28 -5 0 -13 -7 -16
-16z"/>
<path d="M1800 2295 c-10 -12 -10 -15 4 -15 9 0 16 7 16 15 0 8 -2 15 -4 15
-2 0 -9 -7 -16 -15z"/>
<path d="M877 2235 c-10 -7 -14 -16 -9 -19 5 -3 17 1 27 8 10 7 14 15 9 19 -5
3 -17 -1 -27 -8z"/>
<path d="M1509 2166 c-11 -26 -18 -52 -16 -59 3 -7 8 2 12 18 4 17 14 41 22
53 8 13 12 26 9 29 -3 4 -15 -15 -27 -41z"/>
<path d="M1543 2126 c1 -25 4 -30 12 -22 7 6 10 18 7 28 -8 32 -20 29 -19 -6z"/>
<path d="M1746 2123 c5 -5 12 -12 16 -18 4 -6 8 -2 8 8 0 9 -7 17 -17 17 -9 0
-12 -3 -7 -7z"/>
<path d="M853 2051 c-12 -47 -10 -51 13 -17 11 17 13 30 6 42 -7 13 -11 8 -19
-25z"/>
<path d="M802 2060 c0 -14 2 -19 5 -12 2 6 2 18 0 25 -3 6 -5 1 -5 -13z"/>
<path d="M1488 2059 c-12 -7 -18 -22 -18 -46 0 -41 9 -41 12 0 2 19 6 24 18
17 11 -6 15 -3 15 16 0 27 -2 28 -27 13z"/>
<path d="M1730 2045 c0 -14 2 -25 4 -25 2 0 6 11 8 25 3 14 1 25 -3 25 -5 0
-9 -11 -9 -25z"/>
<path d="M1507 2003 c-11 -10 -8 -61 3 -68 6 -4 10 10 10 34 0 42 -2 46 -13
34z"/>
<path d="M1710 1990 c0 -5 5 -10 10 -10 6 0 10 5 10 10 0 6 -4 10 -10 10 -5 0
-10 -4 -10 -10z"/>
<path d="M1193 1926 c-9 -11 -11 -15 -3 -8 25 22 40 14 40 -23 0 -19 5 -35 10
-35 6 0 10 17 10 39 0 48 -28 61 -57 27z"/>
<path d="M848 1853 c-1 -43 -1 -117 1 -165 2 -55 -1 -88 -7 -88 -20 0 -21 -31
-3 -72 l18 -43 12 42 c9 32 9 59 1 105 -8 45 -8 71 -1 92 6 15 8 32 5 38 -4 6
-6 43 -5 83 1 43 -2 76 -8 80 -7 4 -12 -20 -13 -72z"/>
<path d="M1150 1839 c0 -5 5 -7 10 -4 6 3 10 8 10 11 0 2 -4 4 -10 4 -5 0 -10
-5 -10 -11z"/>
<path d="M1475 1751 c-3 -5 -1 -12 5 -16 5 -3 10 1 10 9 0 18 -6 21 -15 7z"/>
<path d="M1656 1698 c-10 -41 -5 -47 23 -29 12 7 11 12 -1 30 l-15 22 -7 -23z"/>
<path d="M1390 1688 c0 -19 2 -20 10 -8 13 19 13 30 0 30 -5 0 -10 -10 -10
-22z"/>
<path d="M1669 1633 c-1 -5 -1 -12 0 -16 1 -4 -6 -22 -15 -40 -12 -22 -16 -52
-15 -94 2 -55 0 -62 -19 -68 -14 -4 -19 -12 -16 -22 17 -44 18 -65 1 -83 -34
-37 -45 -25 -43 45 2 40 -2 69 -10 77 -9 9 -12 6 -12 -16 0 -15 -4 -25 -9 -22
-5 3 -12 -1 -15 -10 -3 -8 -2 -12 4 -9 16 10 11 -18 -7 -40 -15 -20 -15 -19
-10 5 6 24 5 24 -9 5 -10 -13 -12 -29 -7 -55 4 -19 8 -55 8 -80 0 -42 -2 -45
-27 -48 -32 -4 -32 -5 -16 -35 7 -12 17 -46 23 -76 l11 -55 29 110 c15 60 28
119 29 132 1 12 7 22 15 22 11 0 12 -11 7 -52 -7 -49 -6 -51 8 -33 8 11 16 34
16 50 0 36 29 97 49 103 11 4 13 -2 8 -27 -4 -18 -2 -31 3 -31 6 0 10 8 10 18
0 33 44 191 52 186 12 -7 10 -94 -2 -94 -5 0 -10 -10 -10 -22 1 -26 25 -64 33
-51 9 14 5 290 -4 304 -6 10 -9 8 -9 -8 0 -33 -16 -28 -23 7 -6 27 -25 42 -28
23z"/>
<path d="M930 1616 c0 -8 4 -17 9 -20 10 -7 23 19 14 28 -11 11 -23 6 -23 -8z"/>
<path d="M2102 1580 c0 -19 2 -27 5 -17 2 9 2 25 0 35 -3 9 -5 1 -5 -18z"/>
<path d="M1365 1590 c-3 -5 -1 -10 4 -10 6 0 11 5 11 10 0 6 -2 10 -4 10 -3 0
-8 -4 -11 -10z"/>
<path d="M1600 1584 c0 -14 -3 -14 -15 -4 -12 10 -19 10 -27 2 -9 -9 -8 -12 5
-12 11 0 17 -8 17 -22 0 -19 2 -20 14 -8 19 20 30 60 17 60 -6 0 -11 -7 -11
-16z"/>
<path d="M1041 1574 c0 -11 3 -14 6 -6 3 7 2 16 -1 19 -3 4 -6 -2 -5 -13z"/>
<path d="M1378 1564 c-5 -4 -8 -30 -8 -58 0 -28 -5 -58 -10 -66 -8 -12 -10
-10 -10 10 0 15 -4 20 -9 15 -6 -6 -4 -31 5 -65 8 -30 15 -66 15 -80 1 -23 2
-23 9 5 l7 30 7 -28 c5 -17 4 -33 -4 -42 -6 -8 -10 -22 -7 -32 3 -14 7 -12 17
12 l13 30 7 -43 c11 -70 26 -71 39 -2 7 34 13 80 13 102 0 22 7 52 14 67 8 14
11 33 8 43 -2 9 0 19 6 23 13 8 13 52 -1 61 -6 3 -19 -2 -29 -12 -23 -25 -54
-118 -40 -122 13 -5 13 -52 1 -52 -18 0 -23 22 -30 117 -3 52 -9 91 -13 87z"/>
<path d="M900 1516 c0 -22 3 -27 11 -19 8 8 8 16 0 30 -9 16 -10 14 -11 -11z"/>
<path d="M1530 1501 c0 -5 -3 -17 -7 -27 -4 -11 -3 -15 4 -11 6 4 13 3 15 -3
2 -6 9 -6 18 0 12 8 11 12 -8 30 -12 11 -22 16 -22 11z"/>
<path d="M1300 1436 c0 -34 4 -55 10 -51 9 6 5 93 -5 103 -3 3 -5 -20 -5 -52z"/>
<path d="M1932 1420 c0 -14 2 -19 5 -12 2 6 2 18 0 25 -3 6 -5 1 -5 -13z"/>
<path d="M850 1400 c-12 -8 -13 -13 -2 -30 7 -11 15 -54 19 -96 4 -51 9 -72
16 -65 12 12 15 134 4 174 -8 29 -14 32 -37 17z"/>
<path d="M1806 1391 c-4 -5 -2 -12 3 -15 5 -4 12 -2 15 3 4 5 2 12 -3 15 -5 4
-12 2 -15 -3z"/>
<path d="M1770 1314 c0 -8 5 -12 10 -9 6 4 8 11 5 16 -9 14 -15 11 -15 -7z"/>
<path d="M941 1284 c0 -11 3 -14 6 -6 3 7 2 16 -1 19 -3 4 -6 -2 -5 -13z"/>
<path d="M1721 1231 c-11 -7 -12 -13 -4 -23 6 -7 14 -35 18 -62 9 -67 27 -45
23 29 -3 59 -12 72 -37 56z"/>
</g>
</svg>
